<?xml version="1.0" standalone="no"?>
<!DOCTYPE svg PUBLIC "-//W3C//DTD SVG 20010904//EN"
 "http://www.w3.org/TR/2001/REC-SVG-20010904/DTD/svg10.dtd">
<svg version="1.0" xmlns="http://www.w3.org/2000/svg"
 width="176.000000pt" height="176.000000pt" viewBox="0 0 176.000000 176.000000"
 preserveAspectRatio="xMidYMid meet">

<g transform="translate(0.000000,176.000000) scale(0.100000,-0.100000)"
fill="#000000" stroke="none">
<path d="M969 1663 c-23 -14 -29 -29 -44 -112 -10 -53 -23 -102 -29 -110 -8
-11 99 50 133 75 2 2 -13 32 -33 68 -33 61 -34 66 -17 75 10 6 22 7 26 3 5 -4
5 -1 1 6 -9 15 -5 15 -37 -5z"/>
<path d="M1011 1645 c0 -5 8 -26 19 -45 11 -19 19 -30 19 -25 0 6 -8 26 -19
45 -11 19 -19 31 -19 25z"/>
<path d="M815 1564 c-49 -33 -51 -37 -72 -122 -33 -127 -32 -127 27 -90 27 17
47 35 44 39 -6 11 35 179 49 197 14 18 7 15 -48 -24z"/>
<path d="M1410 1535 c-7 -9 -11 -17 -9 -18 2 -1 14 -10 25 -20 19 -16 22 -16
28 -2 3 10 2 14 -5 10 -5 -4 -16 -1 -25 5 -11 10 -12 16 -3 26 6 8 9 14 6 14
-2 0 -10 -7 -17 -15z"/>
<path d="M610 1428 c-47 -33 -84 -65 -82 -70 4 -14 -27 -158 -39 -181 -6 -10
19 1 61 29 38 26 67 51 64 55 -3 5 2 46 11 92 14 70 21 86 48 109 50 43 29 32
-63 -34z"/>
<path d="M400 1284 c-39 -31 -47 -43 -57 -92 -10 -50 -9 -60 5 -77 9 -11 18
-21 19 -23 0 -2 11 2 23 8 18 10 24 9 31 -1 14 -22 11 -29 -11 -29 -23 0 -25
-8 -7 -31 13 -17 33 -14 54 7 17 16 16 24 0 24 -21 0 -38 45 -24 61 10 11 9
11 -5 0 -16 -12 -18 -11 -18 5 0 11 9 56 19 102 10 45 18 82 17 81 0 0 -21
-16 -46 -35z"/>
<path d="M1390 1250 c-9 -6 -10 -10 -3 -10 6 0 15 5 18 10 8 12 4 12 -15 0z"/>
<path d="M304 1208 l-29 -33 33 29 c30 28 37 36 29 36 -2 0 -16 -15 -33 -32z"/>
<path d="M1430 1226 c0 -2 8 -10 18 -17 15 -13 16 -12 3 4 -13 16 -21 21 -21
13z"/>
<path d="M216 1138 c-6 -38 8 -166 21 -179 12 -12 149 -33 167 -26 27 10 18
59 -20 117 -58 88 -93 120 -130 120 -28 0 -32 -4 -38 -32z m71 -14 c8 -20 -8
-36 -26 -25 -15 10 -8 41 9 41 6 0 13 -7 17 -16z m1 -137 c2 -10 -3 -17 -12
-17 -18 0 -29 16 -21 31 9 14 29 6 33 -14z m102 -7 c0 -11 -6 -20 -14 -20 -18
0 -29 16 -21 30 11 18 35 11 35 -10z"/>
<path d="M508 1053 c7 -3 16 -2 19 1 4 3 -2 6 -13 5 -11 0 -14 -3 -6 -6z"/>
<path d="M579 1041 c12 -8 10 -11 -10 -16 -13 -4 -50 -37 -81 -74 l-58 -68
-60 10 c-42 7 -60 14 -56 22 3 8 -7 15 -26 19 -46 9 -50 8 -38 -13 6 -12 10
-114 10 -261 0 -162 4 -248 11 -263 37 -69 117 -95 441 -143 66 -9 115 -21
111 -26 -3 -6 -14 -8 -24 -5 -11 3 -19 1 -19 -4 0 -5 11 -9 24 -9 18 0 26 -7
29 -22 4 -20 4 -19 6 5 0 15 6 27 11 27 6 0 10 8 10 18 0 14 2 15 10 2 9 -13
10 -13 11 0 0 8 7 2 14 -15 8 -16 14 -25 15 -18 0 6 3 19 7 29 5 13 3 15 -8 9
-12 -7 -12 -5 -1 6 9 9 15 10 20 3 14 -22 48 -22 68 1 17 20 20 20 35 6 9 -9
19 -23 23 -31 3 -8 4 -5 2 8 -6 32 40 55 59 29 11 -16 13 -15 17 12 2 17 0 27
-4 24 -5 -3 -8 98 -6 233 l3 239 -54 8 -54 9 74 74 c40 41 82 74 92 74 10 0
16 4 12 9 -9 15 -115 25 -128 12 -6 -6 -22 -11 -36 -12 -15 0 -21 -3 -14 -5 7
-3 -19 -34 -59 -70 -54 -50 -76 -64 -92 -60 -12 3 -30 6 -41 6 -11 0 -27 5
-35 10 -12 8 -7 17 30 50 64 59 130 100 159 101 15 0 -7 7 -47 15 -63 13 -76
13 -101 0 -15 -8 -39 -13 -52 -10 -18 3 -20 2 -6 -4 15 -6 7 -17 -55 -70 -71
-61 -73 -62 -118 -56 -25 4 -48 8 -52 10 -23 14 148 153 191 155 14 1 -3 5
-39 10 -36 4 -81 11 -100 14 -24 4 -31 3 -21 -4z m-292 -208 c-3 -10 -5 -2 -5
17 0 19 2 27 5 18 2 -10 2 -26 0 -35z m20 15 c-3 -7 -5 -2 -5 12 0 14 2 19 5
13 2 -7 2 -19 0 -25z m30 10 c-3 -8 -6 -5 -6 6 -1 11 2 17 5 13 3 -3 4 -12 1
-19z m30 0 c-3 -8 -6 -5 -6 6 -1 11 2 17 5 13 3 -3 4 -12 1 -19z m728 -108
c13 -6 15 -9 5 -9 -8 0 -22 4 -30 9 -18 12 -2 12 25 0z m-714 -26 c12 -15 10
-16 -17 -10 -21 5 -34 2 -43 -7 -20 -24 0 -54 33 -48 4 1 14 -3 21 -9 10 -8
14 0 19 35 4 25 12 45 17 45 6 0 7 -15 4 -37 -11 -62 -11 -62 -52 -56 -64 9
-87 56 -45 91 22 17 47 15 63 -4z m726 0 c-3 -3 -12 -4 -19 -1 -8 3 -5 6 6 6
11 1 17 -2 13 -5z m-635 -42 c15 -35 16 -36 17 -10 1 36 21 47 21 11 0 -39
-10 -73 -22 -73 -5 0 -14 13 -19 30 -12 32 -29 32 -29 -1 0 -10 -5 -19 -10
-19 -7 0 -9 14 -5 38 13 75 22 80 47 24z m112 12 c22 -8 10 -23 -13 -17 -10 3
-22 0 -25 -6 -4 -7 1 -11 13 -11 12 0 21 -4 21 -10 0 -5 -9 -10 -20 -10 -11 0
-20 -4 -20 -9 0 -5 9 -13 20 -16 31 -10 24 -22 -10 -17 -32 5 -35 14 -24 71 7
31 23 38 58 25z m110 -20 c26 -10 18 -25 -9 -18 -31 8 -33 -11 -2 -21 21 -8
21 -8 -5 -12 -33 -5 -36 -19 -8 -28 31 -10 24 -26 -7 -19 -37 9 -35 6 -28 58
7 47 19 55 59 40z m56 -34 c13 -32 30 -31 30 1 0 10 5 19 11 19 8 0 9 -11 5
-31 -3 -17 -6 -40 -6 -50 0 -30 -26 -22 -41 13 -13 31 -13 32 -19 8 -3 -13
-10 -25 -16 -27 -8 -3 -8 11 -1 47 5 27 13 50 17 50 4 0 13 -13 20 -30z m154
-6 c9 -3 16 -10 16 -15 0 -4 -7 -6 -15 -3 -11 4 -16 -5 -21 -35 -4 -23 -11
-41 -17 -41 -6 0 -7 15 -4 37 5 27 2 39 -11 49 -15 12 -14 13 10 14 14 0 33
-3 42 -6z m-409 -39 c83 -14 176 -33 209 -41 50 -13 302 -54 331 -53 6 0 2 4
-7 10 -26 15 -23 32 3 18 15 -7 24 -8 32 0 7 7 2 14 -17 22 -19 9 -26 19 -24
33 4 26 40 33 58 11 12 -14 11 -16 -13 -10 -34 9 -34 0 0 -29 l27 -23 -22 -18
c-19 -17 -20 -19 -4 -31 16 -12 15 -13 -5 -14 -32 0 -312 46 -418 69 -49 11
-133 27 -185 36 -52 9 -112 20 -132 26 -44 11 -53 35 -10 25 15 -3 95 -17 177
-31z m453 -7 c-2 -33 1 -43 14 -46 12 -2 18 7 23 37 4 23 11 41 17 41 12 0 1
-69 -14 -87 -14 -17 -43 -16 -57 1 -13 16 -4 96 11 96 5 0 8 -19 6 -42z m-456
-108 l10 -30 20 25 c37 47 45 25 22 -57 -9 -29 -25 -20 -19 10 6 26 6 26 -9 8
-16 -20 -16 -20 -31 0 -14 19 -14 18 -15 -3 0 -13 -5 -23 -11 -23 -8 0 -9 11
-5 31 3 17 6 40 6 50 0 29 20 22 32 -11z m132 -7 c13 -46 17 -93 8 -93 -5 0
-12 7 -16 15 -7 18 -43 20 -49 3 -2 -7 -8 -10 -12 -6 -8 7 43 98 55 98 5 0 11
-8 14 -17z m75 -30 c19 -36 20 -37 21 -11 0 26 15 46 23 31 2 -5 -1 -30 -8
-58 l-11 -50 -20 32 c-22 37 -34 42 -34 13 0 -11 -5 -20 -10 -20 -7 0 -9 14
-5 38 13 75 17 77 44 25z m144 -14 c28 -44 -25 -95 -72 -69 -24 12 -29 58 -9
78 17 17 68 11 81 -9z m68 1 c10 -6 19 -15 19 -21 0 -6 -8 -6 -21 1 -32 18
-34 4 -3 -23 24 -21 26 -27 15 -41 -17 -21 -45 -20 -62 0 -12 15 -10 16 19 10
39 -9 40 -2 5 28 -24 20 -25 26 -14 40 16 19 17 19 42 6z m-216 -78 c22 -6 87
-18 143 -27 98 -14 150 -30 139 -42 -8 -8 -207 25 -347 57 -69 16 -151 33
-183 39 -67 12 -85 20 -68 31 11 6 221 -33 316 -58z m389 -62 c-6 -6 -21 -13
-34 -15 -28 -5 -14 11 15 18 11 3 22 5 25 6 2 0 -1 -4 -6 -9z m-110 -32 c-3
-4 -12 -8 -20 -8 -8 0 -13 4 -10 8 3 5 12 9 20 9 8 0 13 -4 10 -9z"/>
<path d="M596 445 c-3 -8 -1 -15 4 -15 6 0 10 7 10 15 0 8 -2 15 -4 15 -2 0
-6 -7 -10 -15z"/>
<path d="M774 416 c-10 -26 4 -48 28 -44 17 2 23 10 23 28 0 18 -6 26 -23 28
-13 2 -25 -3 -28 -12z"/>
<path d="M488 1023 c7 -3 16 -2 19 1 4 3 -2 6 -13 5 -11 0 -14 -3 -6 -6z"/>
<path d="M808 1013 c6 -2 18 -2 25 0 6 3 1 5 -13 5 -14 0 -19 -2 -12 -5z"/>
<path d="M698 993 c6 -2 18 -2 25 0 6 3 1 5 -13 5 -14 0 -19 -2 -12 -5z"/>
<path d="M1028 973 c7 -3 16 -2 19 1 4 3 -2 6 -13 5 -11 0 -14 -3 -6 -6z"/>
<path d="M948 953 c6 -2 18 -2 25 0 6 3 1 5 -13 5 -14 0 -19 -2 -12 -5z"/>
<path d="M1170 781 c-28 -8 -26 8 -37 -293 l-5 -167 21 2 c20 1 20 3 6 13 -14
11 -14 12 0 18 9 3 14 2 10 -3 -3 -5 1 -12 7 -15 9 -3 7 -9 -6 -20 -20 -16
-19 -16 1 -16 24 0 38 -38 28 -73 -4 -15 -3 -18 3 -9 5 8 12 13 16 13 16 -2
16 0 2 21 -22 31 -20 65 5 78 11 7 22 10 23 8 2 -2 8 -12 15 -23 10 -18 11
-17 5 8 -6 28 9 57 30 57 6 0 19 -19 29 -43 17 -39 19 -41 32 -23 8 10 12 23
9 27 -3 5 0 9 7 9 7 0 9 3 6 6 -4 4 -14 1 -22 -6 -20 -16 -31 -6 -42 40 l-9
35 -42 -43 c-23 -24 -42 -40 -42 -37 0 4 -6 2 -13 -4 -17 -14 -27 -4 -27 26 0
21 -2 23 -22 13 l-23 -11 23 20 c12 10 22 22 22 25 0 4 -10 2 -22 -4 l-23 -11
23 20 c26 23 29 35 5 27 -17 -6 -17 -5 0 8 9 7 17 17 17 21 0 4 -8 4 -17 1
-17 -6 -17 -5 0 8 9 7 17 18 17 24 0 6 -8 9 -17 6 -17 -5 -17 -5 0 6 19 12 24
35 5 24 -10 -6 -10 -4 0 7 19 21 14 31 -10 19 l-23 -11 23 17 c26 20 29 39 5
30 -17 -6 -17 -5 0 8 9 7 17 19 17 26 0 10 -4 10 -17 -1 -10 -7 -7 0 7 15 22
26 23 28 5 23 -20 -7 -20 -7 -1 8 21 16 15 33 -7 19 -7 -5 -4 -1 6 9 22 20 15
36 -7 18 -12 -10 -14 -9 -12 4 1 8 8 21 16 28 10 9 11 9 6 0 -4 -7 -3 -13 2
-13 5 0 12 9 15 20 3 11 4 20 4 19 -1 -1 -13 -4 -27 -8z"/>
<path d="M1196 605 c4 -8 8 -15 10 -15 2 0 4 7 4 15 0 8 -4 15 -10 15 -5 0 -7
-7 -4 -15z"/>
<path d="M1225 600 c4 -6 11 -8 16 -5 5 4 9 1 9 -5 0 -6 3 -9 8 -6 12 7 1 -78
-12 -86 -8 -5 -7 -8 2 -8 8 0 23 -10 34 -22 11 -13 17 -17 13 -10 -4 7 1 12
12 13 12 0 8 4 -11 11 -28 10 -28 12 -22 63 5 49 4 53 -17 59 -32 8 -39 7 -32
-4z"/>
<path d="M1306 572 c-3 -5 1 -9 9 -9 8 0 12 4 9 9 -3 4 -7 8 -9 8 -2 0 -6 -4
-9 -8z"/>
<path d="M1331 534 c0 -11 3 -14 6 -6 3 7 2 16 -1 19 -3 4 -6 -2 -5 -13z"/>
<path d="M1353 514 c4 -4 -2 -19 -12 -33 -31 -45 -33 -51 -17 -45 10 4 21 -6
33 -30 14 -27 21 -33 33 -26 10 6 11 10 3 10 -15 0 -43 52 -43 80 0 11 7 23
15 26 16 7 11 24 -7 24 -6 0 -8 -3 -5 -6z"/>
<path d="M1200 496 c0 -9 7 -16 16 -16 9 0 14 5 12 12 -6 18 -28 21 -28 4z"/>
<path d="M1380 485 c0 -5 5 -17 10 -25 5 -8 10 -10 10 -5 0 6 -5 17 -10 25 -5
8 -10 11 -10 5z"/>
<path d="M1307 289 c-9 -5 -22 -7 -27 -4 -6 3 -10 0 -10 -8 0 -8 -7 -17 -15
-21 -8 -3 -15 -11 -14 -18 0 -10 2 -10 6 0 2 6 9 10 14 6 5 -3 9 0 9 6 0 6 5
8 12 4 7 -4 8 -3 4 4 -4 7 -3 12 1 12 5 0 18 7 29 15 22 17 17 19 -9 4z"/>
<path d="M760 222 c0 -6 -9 -9 -20 -7 -26 5 -26 -11 1 -18 20 -5 39 17 25 30
-3 4 -6 1 -6 -5z"/>
<path d="M1127 208 c-4 -12 -4 -24 -2 -27 3 -2 5 1 5 8 0 7 4 10 9 6 16 -9 22
12 7 24 -11 9 -15 7 -19 -11z"/>
<path d="M700 211 c0 -7 -6 -11 -13 -8 -11 4 -12 -4 -5 -41 5 -26 9 -53 10
-60 2 -17 30 -11 35 8 4 11 2 12 -5 2 -6 -9 -12 -6 -20 13 -15 33 -15 58 0 73
6 6 9 15 5 19 -4 3 -7 1 -7 -6z"/>
<path d="M981 205 c-1 -11 -4 -31 -6 -45 -3 -14 -3 -19 1 -12 3 6 10 10 15 6
11 -6 10 11 -1 46 -7 21 -8 22 -9 5z"/>
<path d="M1052 190 c-7 -11 -17 -19 -23 -17 -6 1 -14 -5 -16 -13 -3 -10 -2
-11 4 -4 4 6 16 10 26 8 10 -1 21 4 24 13 5 12 7 12 14 1 7 -10 9 -11 9 0 0 7
5 10 10 7 6 -3 10 -1 10 5 0 7 -6 10 -14 7 -7 -3 -18 -1 -23 4 -5 5 -14 0 -21
-11z"/>
<path d="M761 143 c0 -24 3 -43 8 -43 16 0 23 20 13 33 -5 7 -12 21 -15 32 -2
11 -5 1 -6 -22z"/>
<path d="M911 153 c0 -15 3 -22 6 -14 5 11 7 11 14 0 7 -11 9 -11 9 -1 0 7 -7
20 -15 28 -13 14 -15 12 -14 -13z"/>
<path d="M834 137 c-4 -6 -4 -9 1 -5 4 4 14 3 21 -3 16 -13 44 -5 44 13 0 9
-3 8 -10 -2 -8 -12 -13 -13 -29 -3 -16 10 -22 10 -27 0z"/>
<path d="M800 119 c0 -5 9 -9 20 -9 11 0 20 2 20 4 0 2 -9 6 -20 9 -11 3 -20
1 -20 -4z"/>
</g>
</svg>
